<svg xmlns="http://www.w3.org/2000/svg" viewBox="0 0 880 220" preserveAspectRatio="xMidYMid meet" role="img" aria-labelledby="title desc">
  <title id="title">GitHub skyline</title>
  <desc id="desc">A skyline-style GitHub contribution visual generated from recent weekly activity.</desc>
  <defs>
    <linearGradient id="sky-bg" x1="0" y1="0" x2="880" y2="220" gradientUnits="userSpaceOnUse">
      <stop offset="0" stop-color="#03060B"/>
      <stop offset="0.55" stop-color="#06111D"/>
      <stop offset="1" stop-color="#040913"/>
    </linearGradient>
    <linearGradient id="moon-core" x1="0" y1="0" x2="1" y2="1">
      <stop stop-color="#CDEBFF"/>
      <stop offset="1" stop-color="#8EDCFF"/>
    </linearGradient>
    <radialGradient id="moon-glow" cx="0" cy="0" r="1" gradientUnits="userSpaceOnUse" gradientTransform="translate(718 74) rotate(90) scale(86 86)">
      <stop stop-color="#53C8F5" stop-opacity="0.22"/>
      <stop offset="1" stop-color="#53C8F5" stop-opacity="0"/>
    </radialGradient>
    <linearGradient id="frame" x1="40" y1="22" x2="840" y2="198" gradientUnits="userSpaceOnUse">
      <stop stop-color="#97D8F2" stop-opacity="0.34"/>
      <stop offset="0.5" stop-color="#97D8F2" stop-opacity="0.16"/>
      <stop offset="1" stop-color="#97D8F2" stop-opacity="0.28"/>
    </linearGradient>
    <pattern id="scanlines" width="10" height="10" patternUnits="userSpaceOnUse">
      <rect width="10" height="10" fill="transparent"/>
      <path d="M0 2.2H10" stroke="#D8F3FF" stroke-opacity="0.05"/>
    </pattern>
  </defs>
  <style>
    .tower-front{fill:#0F2130}
    .tower-top{fill:#173548}
  </style>
  <rect width="880" height="220" rx="24" fill="url(#sky-bg)"/>
  <rect width="880" height="220" rx="24" fill="url(#moon-glow)"/>
  <rect x="12" y="12" width="856" height="196" rx="18" fill="none" stroke="url(#frame)" stroke-width="1.4"/>
  <rect x="24" y="24" width="832" height="172" rx="14" fill="none" stroke="#1C2B37" stroke-opacity="0.62"/>
  <circle cx="718" cy="74" r="22" fill="url(#moon-core)"/>
  <circle cx="718" cy="74" r="38" fill="none" stroke="#97D8F2" stroke-opacity="0.18"/>
  <circle cx="102" cy="34" r="1.2" fill="#D9F6FF" opacity="0.22"><animate attributeName="opacity" values="0.18;0.86;0.18" dur="6.4s" begin="-0.2s" repeatCount="indefinite"/></circle><circle cx="178" cy="72" r="1.1" fill="#D9F6FF" opacity="0.22"><animate attributeName="opacity" values="0.18;0.86;0.18" dur="5.8s" begin="-1.1s" repeatCount="indefinite"/></circle><circle cx="262" cy="22" r="1.3" fill="#D9F6FF" opacity="0.22"><animate attributeName="opacity" values="0.18;0.86;0.18" dur="7.2s" begin="-2s" repeatCount="indefinite"/></circle><circle cx="386" cy="58" r="1" fill="#D9F6FF" opacity="0.22"><animate attributeName="opacity" values="0.18;0.86;0.18" dur="6.7s" begin="-1.5s" repeatCount="indefinite"/></circle><circle cx="512" cy="32" r="1.2" fill="#D9F6FF" opacity="0.22"><animate attributeName="opacity" values="0.18;0.86;0.18" dur="6s" begin="-0.7s" repeatCount="indefinite"/></circle><circle cx="664" cy="48" r="1.1" fill="#D9F6FF" opacity="0.22"><animate attributeName="opacity" values="0.18;0.86;0.18" dur="7s" begin="-1.8s" repeatCount="indefinite"/></circle><circle cx="786" cy="28" r="1.4" fill="#D9F6FF" opacity="0.22"><animate attributeName="opacity" values="0.18;0.86;0.18" dur="5.9s" begin="-0.5s" repeatCount="indefinite"/></circle>
  <g opacity="0.18">
    <rect width="880" height="220" rx="24" fill="url(#scanlines)">
      <animateTransform attributeName="transform" type="translate" values="0 0;0 6;0 0" dur="18s" repeatCount="indefinite"/>
    </rect>
  </g>
  <path d="M18 184 L20 184 L20 174 L28 174 L28 184 L36 184 L36 171.6 L44 171.6 L44 184 L52 184 L52 169.2 L60 169.2 L60 184 L68 184 L68 166.8 L76 166.8 L76 184 L84 184 L84 174 L92 174 L92 184 L100 184 L100 171.6 L108 171.6 L108 184 L116 184 L116 169.2 L124 169.2 L124 184 L132 184 L132 166.8 L140 166.8 L140 184 L148 184 L148 174 L156 174 L156 184 L164 184 L164 171.6 L172 171.6 L172 184 L180 184 L180 169.2 L188 169.2 L188 184 L196 184 L196 166.8 L204 166.8 L204 184 L212 184 L212 174 L220 174 L220 184 L228 184 L228 171.6 L236 171.6 L236 184 L244 184 L244 169.2 L252 169.2 L252 184 L260 184 L260 166.8 L268 166.8 L268 184 L276 184 L276 174 L284 174 L284 184 L292 184 L292 133.025 L300 133.025 L300 184 L308 184 L308 120.225 L316 120.225 L316 184 L324 184 L324 109.601 L332 109.601 L332 184 L340 184 L340 106.894 L348 106.894 L348 184 L356 184 L356 105.3 L364 105.3 L364 184 L372 184 L372 106.721 L380 106.721 L380 184 L388 184 L388 109.424 L396 109.424 L396 184 L404 184 L404 110.319 L412 110.319 L412 184 L420 184 L420 110.5 L428 110.5 L428 184 L436 184 L436 111.592 L444 111.592 L444 184 L452 184 L452 109.844 L460 109.844 L460 184 L468 184 L468 109.147 L476 109.147 L476 184 L484 184 L484 108.962 L492 108.962 L492 184 L500 184 L500 108.425 L508 108.425 L508 184 L516 184 L516 111.018 L524 111.018 L524 184 L532 184 L532 112.21 L540 112.21 L540 184 L548 184 L548 113.089 L556 113.089 L556 184 L564 184 L564 111.555 L572 111.555 L572 184 L580 184 L580 110.718 L588 110.718 L588 184 L596 184 L596 106.451 L604 106.451 L604 184 L612 184 L612 105.099 L620 105.099 L620 184 L628 184 L628 102.796 L636 102.796 L636 184 L644 184 L644 102.956 L652 102.956 L652 184 L660 184 L660 102.329 L668 102.329 L668 184 L676 184 L676 104.678 L684 104.678 L684 184 L692 184 L692 107.382 L700 107.382 L700 184 L708 184 L708 109.685 L716 109.685 L716 184 L724 184 L724 112.024 L732 112.024 L732 184 L740 184 L740 112.979 L748 112.979 L748 184 L756 184 L756 111.362 L764 111.362 L764 184 L772 184 L772 110.377 L780 110.377 L780 184 L788 184 L788 109.33 L796 109.33 L796 184 L804 184 L804 108.551 L812 108.551 L812 184 L820 184 L820 107.749 L828 107.749 L828 184 L836 184 L836 109.272 L844 109.272 L844 184 L852 184 L852 107.911 L860 107.911 L860 184 L862 184 L862 220 L18 220 Z" fill="#0B1622" opacity="0.82"/>
  <g><rect class="tower-front" x="18" y="176" width="12" height="8" rx="2" ry="2"/><rect class="tower-front" x="34" y="173.8" width="12" height="10.2" rx="2" ry="2"/><rect class="tower-front" x="50" y="171.6" width="12" height="12.4" rx="2" ry="2"/><rect class="tower-front" x="66" y="169.4" width="12" height="14.6" rx="2" ry="2"/><rect class="tower-front" x="82" y="167.2" width="12" height="16.8" rx="2" ry="2"/><rect class="tower-front" x="98" y="176" width="12" height="8" rx="2" ry="2"/><rect class="tower-front" x="114" y="173.8" width="12" height="10.2" rx="2" ry="2"/><rect class="tower-front" x="130" y="171.6" width="12" height="12.4" rx="2" ry="2"/><rect class="tower-front" x="146" y="169.4" width="12" height="14.6" rx="2" ry="2"/><rect class="tower-front" x="162" y="167.2" width="12" height="16.8" rx="2" ry="2"/><rect class="tower-front" x="178" y="176" width="12" height="8" rx="2" ry="2"/><rect class="tower-front" x="194" y="173.8" width="12" height="10.2" rx="2" ry="2"/><rect class="tower-front" x="210" y="171.6" width="12" height="12.4" rx="2" ry="2"/><rect class="tower-front" x="226" y="169.4" width="12" height="14.6" rx="2" ry="2"/><rect class="tower-front" x="242" y="167.2" width="12" height="16.8" rx="2" ry="2"/><rect class="tower-front" x="258" y="176" width="12" height="8" rx="2" ry="2"/><rect class="tower-front" x="274" y="173.8" width="12" height="10.2" rx="2" ry="2"/><rect class="tower-front" x="290" y="97.873" width="12" height="86.127" rx="2" ry="2"/><rect class="tower-top" x="306" y="68.061" width="12" height="115.939" rx="2" ry="2"/><rect class="tower-top" x="322" y="64.951" width="12" height="119.049" rx="2" ry="2"/><path d="M328 64.951V53.951" stroke="#AEE8FF" stroke-opacity="0.44" stroke-linecap="round"/><rect class="tower-top" x="338" y="48" width="12" height="136" rx="2" ry="2"/><path d="M344 48V34" stroke="#AEE8FF" stroke-opacity="0.44" stroke-linecap="round"/><rect class="tower-top" x="354" y="68.061" width="12" height="115.939" rx="2" ry="2"/><rect class="tower-top" x="370" y="72.92" width="12" height="111.08" rx="2" ry="2"/><rect class="tower-top" x="386" y="53.366" width="12" height="130.634" rx="2" ry="2"/><path d="M392 53.366V39.366" stroke="#AEE8FF" stroke-opacity="0.44" stroke-linecap="round"/><rect class="tower-top" x="402" y="78.048" width="12" height="105.952" rx="2" ry="2"/><rect class="tower-top" x="418" y="72.92" width="12" height="111.08" rx="2" ry="2"/><rect class="tower-top" x="434" y="76.306" width="12" height="107.694" rx="2" ry="2"/><rect class="tower-top" x="450" y="74.598" width="12" height="109.402" rx="2" ry="2"/><rect class="tower-top" x="466" y="63.431" width="12" height="120.569" rx="2" ry="2"/><path d="M472 63.431V52.431" stroke="#AEE8FF" stroke-opacity="0.44" stroke-linecap="round"/><rect class="tower-top" x="482" y="61.934" width="12" height="122.066" rx="2" ry="2"/><path d="M488 61.934V47.934" stroke="#AEE8FF" stroke-opacity="0.44" stroke-linecap="round"/><rect class="tower-top" x="498" y="66.494" width="12" height="117.506" rx="2" ry="2"/><rect class="tower-top" x="514" y="74.598" width="12" height="109.402" rx="2" ry="2"/><rect class="tower-top" x="530" y="69.653" width="12" height="114.347" rx="2" ry="2"/><rect class="tower-front" x="546" y="87.333" width="12" height="96.667" rx="2" ry="2"/><rect class="tower-top" x="562" y="72.92" width="12" height="111.08" rx="2" ry="2"/><rect class="tower-top" x="578" y="74.598" width="12" height="109.402" rx="2" ry="2"/><rect class="tower-top" x="594" y="60.458" width="12" height="123.542" rx="2" ry="2"/><path d="M600 60.458V52.458" stroke="#AEE8FF" stroke-opacity="0.44" stroke-linecap="round"/><rect class="tower-top" x="610" y="61.934" width="12" height="122.066" rx="2" ry="2"/><path d="M616 61.934V50.934" stroke="#AEE8FF" stroke-opacity="0.44" stroke-linecap="round"/><rect class="tower-top" x="626" y="48" width="12" height="136" rx="2" ry="2"/><path d="M632 48V34" stroke="#AEE8FF" stroke-opacity="0.44" stroke-linecap="round"/><rect class="tower-top" x="642" y="60.458" width="12" height="123.542" rx="2" ry="2"/><path d="M648 60.458V52.458" stroke="#AEE8FF" stroke-opacity="0.44" stroke-linecap="round"/><rect class="tower-top" x="658" y="53.366" width="12" height="130.634" rx="2" ry="2"/><path d="M664 53.366V42.366" stroke="#AEE8FF" stroke-opacity="0.44" stroke-linecap="round"/><rect class="tower-top" x="674" y="61.934" width="12" height="122.066" rx="2" ry="2"/><path d="M680 61.934V47.934" stroke="#AEE8FF" stroke-opacity="0.44" stroke-linecap="round"/><rect class="tower-top" x="690" y="56.148" width="12" height="127.852" rx="2" ry="2"/><path d="M696 56.148V48.148" stroke="#AEE8FF" stroke-opacity="0.44" stroke-linecap="round"/><rect class="tower-top" x="706" y="69.653" width="12" height="114.347" rx="2" ry="2"/><rect class="tower-front" x="722" y="85.391" width="12" height="98.609" rx="2" ry="2"/><rect class="tower-top" x="738" y="74.598" width="12" height="109.402" rx="2" ry="2"/><rect class="tower-front" x="754" y="83.494" width="12" height="100.506" rx="2" ry="2"/><rect class="tower-top" x="770" y="64.951" width="12" height="119.049" rx="2" ry="2"/><path d="M776 64.951V50.951" stroke="#AEE8FF" stroke-opacity="0.44" stroke-linecap="round"/><rect class="tower-top" x="786" y="54.749" width="12" height="129.251" rx="2" ry="2"/><path d="M792 54.749V46.749" stroke="#AEE8FF" stroke-opacity="0.44" stroke-linecap="round"/><rect class="tower-top" x="802" y="76.306" width="12" height="107.694" rx="2" ry="2"/><rect class="tower-top" x="818" y="64.951" width="12" height="119.049" rx="2" ry="2"/><path d="M824 64.951V50.951" stroke="#AEE8FF" stroke-opacity="0.44" stroke-linecap="round"/><rect class="tower-top" x="834" y="76.306" width="12" height="107.694" rx="2" ry="2"/><rect class="tower-top" x="850" y="57.565" width="12" height="126.435" rx="2" ry="2"/><path d="M856 57.565V46.565" stroke="#AEE8FF" stroke-opacity="0.44" stroke-linecap="round"/></g>
  <g><rect x="292" y="174" width="1.9" height="5.2" rx="0.8" fill="#86CAE6" fill-opacity="0.34"/><rect x="292" y="158" width="1.9" height="5.2" rx="0.8" fill="#D9F6FF" fill-opacity="0.62"/><rect x="308" y="174" width="1.9" height="5.2" rx="0.8" fill="#D9F6FF" fill-opacity="0.62"/><rect x="308" y="158" width="1.9" height="5.2" rx="0.8" fill="#86CAE6" fill-opacity="0.34"/><rect x="308" y="142" width="1.9" height="5.2" rx="0.8" fill="#86CAE6" fill-opacity="0.34"/><rect x="324" y="174" width="1.9" height="5.2" rx="0.8" fill="#86CAE6" fill-opacity="0.34"/><rect x="324" y="158" width="1.9" height="5.2" rx="0.8" fill="#86CAE6" fill-opacity="0.34"/><rect x="324" y="142" width="1.9" height="5.2" rx="0.8" fill="#D9F6FF" fill-opacity="0.62"/><rect x="340" y="174" width="1.9" height="5.2" rx="0.8" fill="#86CAE6" fill-opacity="0.34"/><rect x="340" y="158" width="1.9" height="5.2" rx="0.8" fill="#D9F6FF" fill-opacity="0.62"/><rect x="340" y="142" width="1.9" height="5.2" rx="0.8" fill="#86CAE6" fill-opacity="0.34"/><rect x="340" y="126" width="1.9" height="5.2" rx="0.8" fill="#86CAE6" fill-opacity="0.34"/><rect x="356" y="174" width="1.9" height="5.2" rx="0.8" fill="#D9F6FF" fill-opacity="0.62"/><rect x="356" y="158" width="1.9" height="5.2" rx="0.8" fill="#86CAE6" fill-opacity="0.34"/><rect x="356" y="142" width="1.9" height="5.2" rx="0.8" fill="#86CAE6" fill-opacity="0.34"/><rect x="372" y="174" width="1.9" height="5.2" rx="0.8" fill="#86CAE6" fill-opacity="0.34"/><rect x="372" y="158" width="1.9" height="5.2" rx="0.8" fill="#86CAE6" fill-opacity="0.34"/><rect x="372" y="142" width="1.9" height="5.2" rx="0.8" fill="#D9F6FF" fill-opacity="0.62"/><rect x="388" y="174" width="1.9" height="5.2" rx="0.8" fill="#86CAE6" fill-opacity="0.34"/><rect x="388" y="158" width="1.9" height="5.2" rx="0.8" fill="#D9F6FF" fill-opacity="0.62"/><rect x="388" y="142" width="1.9" height="5.2" rx="0.8" fill="#86CAE6" fill-opacity="0.34"/><rect x="388" y="126" width="1.9" height="5.2" rx="0.8" fill="#86CAE6" fill-opacity="0.34"/><rect x="404" y="174" width="1.9" height="5.2" rx="0.8" fill="#D9F6FF" fill-opacity="0.62"/><rect x="404" y="158" width="1.9" height="5.2" rx="0.8" fill="#86CAE6" fill-opacity="0.34"/><rect x="404" y="142" width="1.9" height="5.2" rx="0.8" fill="#86CAE6" fill-opacity="0.34"/><rect x="420" y="174" width="1.9" height="5.2" rx="0.8" fill="#86CAE6" fill-opacity="0.34"/><rect x="420" y="158" width="1.9" height="5.2" rx="0.8" fill="#86CAE6" fill-opacity="0.34"/><rect x="420" y="142" width="1.9" height="5.2" rx="0.8" fill="#D9F6FF" fill-opacity="0.62"/><rect x="436" y="174" width="1.9" height="5.2" rx="0.8" fill="#86CAE6" fill-opacity="0.34"/><rect x="436" y="158" width="1.9" height="5.2" rx="0.8" fill="#D9F6FF" fill-opacity="0.62"/><rect x="436" y="142" width="1.9" height="5.2" rx="0.8" fill="#86CAE6" fill-opacity="0.34"/><rect x="452" y="174" width="1.9" height="5.2" rx="0.8" fill="#D9F6FF" fill-opacity="0.62"/><rect x="452" y="158" width="1.9" height="5.2" rx="0.8" fill="#86CAE6" fill-opacity="0.34"/><rect x="452" y="142" width="1.9" height="5.2" rx="0.8" fill="#86CAE6" fill-opacity="0.34"/><rect x="468" y="174" width="1.9" height="5.2" rx="0.8" fill="#86CAE6" fill-opacity="0.34"/><rect x="468" y="158" width="1.9" height="5.2" rx="0.8" fill="#86CAE6" fill-opacity="0.34"/><rect x="468" y="142" width="1.9" height="5.2" rx="0.8" fill="#D9F6FF" fill-opacity="0.62"/><rect x="468" y="126" width="1.9" height="5.2" rx="0.8" fill="#86CAE6" fill-opacity="0.34"/><rect x="484" y="174" width="1.9" height="5.2" rx="0.8" fill="#86CAE6" fill-opacity="0.34"/><rect x="484" y="158" width="1.9" height="5.2" rx="0.8" fill="#D9F6FF" fill-opacity="0.62"/><rect x="484" y="142" width="1.9" height="5.2" rx="0.8" fill="#86CAE6" fill-opacity="0.34"/><rect x="484" y="126" width="1.9" height="5.2" rx="0.8" fill="#86CAE6" fill-opacity="0.34"/><rect x="500" y="174" width="1.9" height="5.2" rx="0.8" fill="#D9F6FF" fill-opacity="0.62"/><rect x="500" y="158" width="1.9" height="5.2" rx="0.8" fill="#86CAE6" fill-opacity="0.34"/><rect x="500" y="142" width="1.9" height="5.2" rx="0.8" fill="#86CAE6" fill-opacity="0.34"/><rect x="516" y="174" width="1.9" height="5.2" rx="0.8" fill="#86CAE6" fill-opacity="0.34"/><rect x="516" y="158" width="1.9" height="5.2" rx="0.8" fill="#86CAE6" fill-opacity="0.34"/><rect x="516" y="142" width="1.9" height="5.2" rx="0.8" fill="#D9F6FF" fill-opacity="0.62"/><rect x="532" y="174" width="1.9" height="5.2" rx="0.8" fill="#86CAE6" fill-opacity="0.34"/><rect x="532" y="158" width="1.9" height="5.2" rx="0.8" fill="#D9F6FF" fill-opacity="0.62"/><rect x="532" y="142" width="1.9" height="5.2" rx="0.8" fill="#86CAE6" fill-opacity="0.34"/><rect x="548" y="174" width="1.9" height="5.2" rx="0.8" fill="#D9F6FF" fill-opacity="0.62"/><rect x="548" y="158" width="1.9" height="5.2" rx="0.8" fill="#86CAE6" fill-opacity="0.34"/><rect x="548" y="142" width="1.9" height="5.2" rx="0.8" fill="#86CAE6" fill-opacity="0.34"/><rect x="564" y="174" width="1.9" height="5.2" rx="0.8" fill="#86CAE6" fill-opacity="0.34"/><rect x="564" y="158" width="1.9" height="5.2" rx="0.8" fill="#86CAE6" fill-opacity="0.34"/><rect x="564" y="142" width="1.9" height="5.2" rx="0.8" fill="#D9F6FF" fill-opacity="0.62"/><rect x="580" y="174" width="1.9" height="5.2" rx="0.8" fill="#86CAE6" fill-opacity="0.34"/><rect x="580" y="158" width="1.9" height="5.2" rx="0.8" fill="#D9F6FF" fill-opacity="0.62"/><rect x="580" y="142" width="1.9" height="5.2" rx="0.8" fill="#86CAE6" fill-opacity="0.34"/><rect x="596" y="174" width="1.9" height="5.2" rx="0.8" fill="#D9F6FF" fill-opacity="0.62"/><rect x="596" y="158" width="1.9" height="5.2" rx="0.8" fill="#86CAE6" fill-opacity="0.34"/><rect x="596" y="142" width="1.9" height="5.2" rx="0.8" fill="#86CAE6" fill-opacity="0.34"/><rect x="596" y="126" width="1.9" height="5.2" rx="0.8" fill="#D9F6FF" fill-opacity="0.62"/><rect x="612" y="174" width="1.9" height="5.2" rx="0.8" fill="#86CAE6" fill-opacity="0.34"/><rect x="612" y="158" width="1.9" height="5.2" rx="0.8" fill="#86CAE6" fill-opacity="0.34"/><rect x="612" y="142" width="1.9" height="5.2" rx="0.8" fill="#D9F6FF" fill-opacity="0.62"/><rect x="612" y="126" width="1.9" height="5.2" rx="0.8" fill="#86CAE6" fill-opacity="0.34"/><rect x="628" y="174" width="1.9" height="5.2" rx="0.8" fill="#86CAE6" fill-opacity="0.34"/><rect x="628" y="158" width="1.9" height="5.2" rx="0.8" fill="#D9F6FF" fill-opacity="0.62"/><rect x="628" y="142" width="1.9" height="5.2" rx="0.8" fill="#86CAE6" fill-opacity="0.34"/><rect x="628" y="126" width="1.9" height="5.2" rx="0.8" fill="#86CAE6" fill-opacity="0.34"/><rect x="644" y="174" width="1.9" height="5.2" rx="0.8" fill="#D9F6FF" fill-opacity="0.62"/><rect x="644" y="158" width="1.9" height="5.2" rx="0.8" fill="#86CAE6" fill-opacity="0.34"/><rect x="644" y="142" width="1.9" height="5.2" rx="0.8" fill="#86CAE6" fill-opacity="0.34"/><rect x="644" y="126" width="1.9" height="5.2" rx="0.8" fill="#D9F6FF" fill-opacity="0.62"/><rect x="660" y="174" width="1.9" height="5.2" rx="0.8" fill="#86CAE6" fill-opacity="0.34"/><rect x="660" y="158" width="1.9" height="5.2" rx="0.8" fill="#86CAE6" fill-opacity="0.34"/><rect x="660" y="142" width="1.9" height="5.2" rx="0.8" fill="#D9F6FF" fill-opacity="0.62"/><rect x="660" y="126" width="1.9" height="5.2" rx="0.8" fill="#86CAE6" fill-opacity="0.34"/><rect x="676" y="174" width="1.9" height="5.2" rx="0.8" fill="#86CAE6" fill-opacity="0.34"/><rect x="676" y="158" width="1.9" height="5.2" rx="0.8" fill="#D9F6FF" fill-opacity="0.62"/><rect x="676" y="142" width="1.9" height="5.2" rx="0.8" fill="#86CAE6" fill-opacity="0.34"/><rect x="676" y="126" width="1.9" height="5.2" rx="0.8" fill="#86CAE6" fill-opacity="0.34"/><rect x="692" y="174" width="1.9" height="5.2" rx="0.8" fill="#D9F6FF" fill-opacity="0.62"/><rect x="692" y="158" width="1.9" height="5.2" rx="0.8" fill="#86CAE6" fill-opacity="0.34"/><rect x="692" y="142" width="1.9" height="5.2" rx="0.8" fill="#86CAE6" fill-opacity="0.34"/><rect x="692" y="126" width="1.9" height="5.2" rx="0.8" fill="#D9F6FF" fill-opacity="0.62"/><rect x="708" y="174" width="1.9" height="5.2" rx="0.8" fill="#86CAE6" fill-opacity="0.34"/><rect x="708" y="158" width="1.9" height="5.2" rx="0.8" fill="#86CAE6" fill-opacity="0.34"/><rect x="708" y="142" width="1.9" height="5.2" rx="0.8" fill="#D9F6FF" fill-opacity="0.62"/><rect x="724" y="174" width="1.9" height="5.2" rx="0.8" fill="#86CAE6" fill-opacity="0.34"/><rect x="724" y="158" width="1.9" height="5.2" rx="0.8" fill="#D9F6FF" fill-opacity="0.62"/><rect x="724" y="142" width="1.9" height="5.2" rx="0.8" fill="#86CAE6" fill-opacity="0.34"/><rect x="740" y="174" width="1.9" height="5.2" rx="0.8" fill="#D9F6FF" fill-opacity="0.62"/><rect x="740" y="158" width="1.9" height="5.2" rx="0.8" fill="#86CAE6" fill-opacity="0.34"/><rect x="740" y="142" width="1.9" height="5.2" rx="0.8" fill="#86CAE6" fill-opacity="0.34"/><rect x="756" y="174" width="1.9" height="5.2" rx="0.8" fill="#86CAE6" fill-opacity="0.34"/><rect x="756" y="158" width="1.9" height="5.2" rx="0.8" fill="#86CAE6" fill-opacity="0.34"/><rect x="756" y="142" width="1.9" height="5.2" rx="0.8" fill="#D9F6FF" fill-opacity="0.62"/><rect x="772" y="174" width="1.9" height="5.2" rx="0.8" fill="#86CAE6" fill-opacity="0.34"/><rect x="772" y="158" width="1.9" height="5.2" rx="0.8" fill="#D9F6FF" fill-opacity="0.62"/><rect x="772" y="142" width="1.9" height="5.2" rx="0.8" fill="#86CAE6" fill-opacity="0.34"/><rect x="788" y="174" width="1.9" height="5.2" rx="0.8" fill="#D9F6FF" fill-opacity="0.62"/><rect x="788" y="158" width="1.9" height="5.2" rx="0.8" fill="#86CAE6" fill-opacity="0.34"/><rect x="788" y="142" width="1.9" height="5.2" rx="0.8" fill="#86CAE6" fill-opacity="0.34"/><rect x="788" y="126" width="1.9" height="5.2" rx="0.8" fill="#D9F6FF" fill-opacity="0.62"/><rect x="804" y="174" width="1.9" height="5.2" rx="0.8" fill="#86CAE6" fill-opacity="0.34"/><rect x="804" y="158" width="1.9" height="5.2" rx="0.8" fill="#86CAE6" fill-opacity="0.34"/><rect x="804" y="142" width="1.9" height="5.2" rx="0.8" fill="#D9F6FF" fill-opacity="0.62"/><rect x="820" y="174" width="1.9" height="5.2" rx="0.8" fill="#86CAE6" fill-opacity="0.34"/><rect x="820" y="158" width="1.9" height="5.2" rx="0.8" fill="#D9F6FF" fill-opacity="0.62"/><rect x="820" y="142" width="1.9" height="5.2" rx="0.8" fill="#86CAE6" fill-opacity="0.34"/><rect x="836" y="174" width="1.9" height="5.2" rx="0.8" fill="#D9F6FF" fill-opacity="0.62"/><rect x="836" y="158" width="1.9" height="5.2" rx="0.8" fill="#86CAE6" fill-opacity="0.34"/><rect x="836" y="142" width="1.9" height="5.2" rx="0.8" fill="#86CAE6" fill-opacity="0.34"/><rect x="852" y="174" width="1.9" height="5.2" rx="0.8" fill="#86CAE6" fill-opacity="0.34"/><rect x="852" y="158" width="1.9" height="5.2" rx="0.8" fill="#86CAE6" fill-opacity="0.34"/><rect x="852" y="142" width="1.9" height="5.2" rx="0.8" fill="#D9F6FF" fill-opacity="0.62"/><rect x="852" y="126" width="1.9" height="5.2" rx="0.8" fill="#86CAE6" fill-opacity="0.34"/></g>
  <rect x="0" y="184" width="880" height="36" fill="#08111C"/>
  <path d="M0 184H880" stroke="#B6E8FB" stroke-opacity="0.28"/>
  <path d="M0 196H880" stroke="#1C2B37" stroke-opacity="0.72"/>
  <rect x="-120" y="-32" width="140" height="374.0" fill="url(#frame)" opacity="0.08" transform="rotate(8 440 110)">
    <animate attributeName="x" values="-120;920;-120" dur="34s" repeatCount="indefinite"/>
  </rect>
</svg>
