<svg width="1200" height="360" viewBox="0 0 1200 360" fill="none" xmlns="http://www.w3.org/2000/svg" role="img" aria-labelledby="title desc">
  <title id="title">bujhmml monochrome banner</title>
  <desc id="desc">Black to charcoal gradient with grid, stars, and glowing title text.</desc>
  <defs>
    <linearGradient id="bg" x1="0" y1="0" x2="1200" y2="360" gradientUnits="userSpaceOnUse">
      <stop stop-color="#050505"/>
      <stop offset="0.6" stop-color="#0A0A0A"/>
      <stop offset="1" stop-color="#101010"/>
    </linearGradient>
    <pattern id="grid" width="40" height="40" patternUnits="userSpaceOnUse">
      <path d="M40 0H0V40" stroke="#2A2A2A" stroke-width="1" stroke-opacity="0.32"/>
    </pattern>
    <radialGradient id="halo" cx="0.5" cy="0.5" r="0.55">
      <stop offset="0" stop-color="#FFFFFF" stop-opacity="0.25"/>
      <stop offset="1" stop-color="#0A0A0A" stop-opacity="0"/>
    </radialGradient>
    <filter id="glow" x="-20" y="-20" width="1240" height="400" color-interpolation-filters="sRGB">
      <feGaussianBlur stdDeviation="18" result="blur"/>
      <feColorMatrix in="blur" type="matrix" values="1 0 0 0 0  0 1 0 0 0  0 0 1 0 0  0 0 0 0.6 0"/>
    </filter>
  </defs>
  <rect width="1200" height="360" fill="url(#bg)"/>
  <rect width="1200" height="360" fill="url(#grid)" opacity="0.3"/>
  <rect x="-120" y="-80" width="1440" height="520" fill="url(#halo)"/>
  <g filter="url(#glow)">
    <ellipse cx="320" cy="120" rx="190" ry="90" fill="#FFFFFF" fill-opacity="0.12"/>
    <ellipse cx="880" cy="240" rx="230" ry="120" fill="#FFFFFF" fill-opacity="0.12"/>
  </g>
  <g>
    <text x="50%" y="52%" text-anchor="middle" font-family="'SFMono-Regular','Fira Code','Monaco',monospace" font-size="86" font-weight="700" fill="#F5F5F5" letter-spacing="8">bujhmml</text>
    <text x="50%" y="70%" text-anchor="middle" font-family="'Inter','Segoe UI',sans-serif" font-size="24" fill="#CFCFCF" letter-spacing="4">cosmic codecraft in grayscale</text>
    <rect x="420" y="236" width="360" height="4" rx="2" fill="#FFFFFF" fill-opacity="0.32"/>
  </g>
  <g opacity="0.7">
    <circle cx="80" cy="42" r="3" fill="#FFFFFF"/>
    <circle cx="180" cy="300" r="2" fill="#D9D9D9"/>
    <circle cx="520" cy="52" r="2.5" fill="#EAEAEA"/>
    <circle cx="760" cy="96" r="2" fill="#C4C4C4"/>
    <circle cx="1020" cy="36" r="3" fill="#FFFFFF"/>
    <circle cx="1120" cy="300" r="2" fill="#DADADA"/>
  </g>
</svg>
