<svg width="1200" height="140" viewBox="0 0 1200 140" fill="none" xmlns="http://www.w3.org/2000/svg" role="img" aria-labelledby="title desc">
  <title id="title">Monochrome cosmic strip</title>
  <desc id="desc">Starfield strip with grayscale streaks.</desc>
  <defs>
    <linearGradient id="bg" x1="0" y1="0" x2="1200" y2="140" gradientUnits="userSpaceOnUse">
      <stop stop-color="#050505"/>
      <stop offset="0.5" stop-color="#0B0B0B"/>
      <stop offset="1" stop-color="#111111"/>
    </linearGradient>
    <linearGradient id="streak" x1="0" y1="0" x2="1" y2="0">
      <stop stop-color="#FFFFFF" stop-opacity="0"/>
      <stop offset="0.3" stop-color="#FFFFFF" stop-opacity="0.7"/>
      <stop offset="1" stop-color="#FFFFFF" stop-opacity="0"/>
    </linearGradient>
    <radialGradient id="glow" cx="0.5" cy="0.5" r="0.5">
      <stop offset="0" stop-color="#FFFFFF" stop-opacity="0.9"/>
      <stop offset="1" stop-color="#0B0B0B" stop-opacity="0"/>
    </radialGradient>
  </defs>
  <rect width="1200" height="140" fill="url(#bg)"/>
  <g opacity="0.5">
    <path d="M80 30L360 44" stroke="url(#streak)" stroke-width="8" stroke-linecap="round"/>
    <path d="M460 72L920 66" stroke="url(#streak)" stroke-width="8" stroke-linecap="round"/>
    <path d="M220 110L620 104" stroke="url(#streak)" stroke-width="8" stroke-linecap="round"/>
    <path d="M760 26L1120 42" stroke="url(#streak)" stroke-width="8" stroke-linecap="round"/>
    <path d="M820 108L1140 122" stroke="url(#streak)" stroke-width="8" stroke-linecap="round"/>
  </g>
  <g>
    <circle cx="140" cy="52" r="3" fill="#EDEDED"/>
    <circle cx="360" cy="26" r="2" fill="#D6D6D6"/>
    <circle cx="560" cy="90" r="2.5" fill="#FFFFFF"/>
    <circle cx="760" cy="64" r="3" fill="#EAEAEA"/>
    <circle cx="980" cy="22" r="2" fill="#E0E0E0"/>
    <circle cx="1120" cy="92" r="2.5" fill="#D5D5D5"/>
    <circle cx="240" cy="126" r="2" fill="#CFCFCF"/>
    <circle cx="560" cy="126" r="2.5" fill="#BFBFBF"/>
  </g>
  <g opacity="0.8">
    <circle cx="320" cy="60" r="10" fill="url(#glow)"/>
    <circle cx="900" cy="100" r="12" fill="url(#glow)"/>
  </g>
</svg>
