<svg xmlns="http://www.w3.org/2000/svg" viewBox="0 0 480 210" width="480" height="210" role="img" aria-label="Most used languages">
<defs>
  <clipPath id="bar"><rect x="30" y="72" width="420" height="12" rx="6"/></clipPath>
  <style>
    .t{font-family:-apple-system,'Segoe UI',Helvetica,Arial,sans-serif}
  </style>
</defs>
<rect x="1" y="1" width="478" height="208" rx="10" fill="#0d1117" fill-opacity="0.0" stroke="#2a2118" stroke-width="1.5"/>
<text class="t" x="26" y="42" font-size="19" font-weight="700" fill="#e3b341">Most Used Languages</text>

<g clip-path="url(#bar)">
  <rect x="30"    y="72" width="278" height="12" fill="#f0c850"/>
  <rect x="307.5" y="72" width="85"  height="12" fill="#d9a93a"/>
  <rect x="392.4" y="72" width="21.4" height="12" fill="#c4882c"/>
  <rect x="413.8" y="72" width="9.7"  height="12" fill="#b0741f"/>
  <rect x="423.5" y="72" width="11.7" height="12" fill="#9c6420"/>
  <rect x="435.2" y="72" width="7.3"  height="12" fill="#845018"/>
  <rect x="442.5" y="72" width="3.2"  height="12" fill="#6e4216"/>
  <rect x="445.7" y="72" width="4.4"  height="12" fill="#563418"/>
</g>

<g class="t" font-size="13.5" fill="#c9c2b4">
  <circle cx="36" cy="112" r="5" fill="#f0c850"/><text x="48" y="116">TypeScript&#160;&#160;66.1%</text>
  <circle cx="36" cy="140" r="5" fill="#c4882c"/><text x="48" y="144">HTML&#160;&#160;5.1%</text>
  <circle cx="36" cy="168" r="5" fill="#9c6420"/><text x="48" y="172">PHP&#160;&#160;2.8%</text>
  <circle cx="36" cy="196" r="5" fill="#6e4216"/><text x="48" y="200">CSS&#160;&#160;0.8%</text>
  <circle cx="258" cy="112" r="5" fill="#d9a93a"/><text x="270" y="116">Python&#160;&#160;20.2%</text>
  <circle cx="258" cy="140" r="5" fill="#b0741f"/><text x="270" y="144">Swift&#160;&#160;2.3%</text>
  <circle cx="258" cy="168" r="5" fill="#845018"/><text x="270" y="172">JavaScript&#160;&#160;1.7%</text>
  <circle cx="258" cy="196" r="5" fill="#563418"/><text x="270" y="200">Other&#160;&#160;1.0%</text>
</g>
</svg>
